<?xml version="1.0" encoding="UTF-8" standalone="no"?>
<!-- Created with Inkscape (http://www.inkscape.org/) -->

<svg
   width="508mm"
   height="285.75mm"
   viewBox="0 0 508 285.75"
   version="1.1"
   id="svg1"
   inkscape:version="1.3.2 (091e20e, 2023-11-25, custom)"
   sodipodi:docname="Original.svg"
   xml:space="preserve"
   xmlns:inkscape="http://www.inkscape.org/namespaces/inkscape"
   xmlns:sodipodi="http://sodipodi.sourceforge.net/DTD/sodipodi-0.dtd"
   xmlns:xlink="http://www.w3.org/1999/xlink"
   xmlns="http://www.w3.org/2000/svg"
   xmlns:svg="http://www.w3.org/2000/svg"><sodipodi:namedview
     id="namedview1"
     pagecolor="#ffffff"
     bordercolor="#000000"
     borderopacity="0.25"
     inkscape:showpageshadow="2"
     inkscape:pageopacity="0.0"
     inkscape:pagecheckerboard="0"
     inkscape:deskcolor="#d1d1d1"
     inkscape:document-units="mm"
     showguides="true"
     inkscape:zoom="0.088388351"
     inkscape:cx="1928.9872"
     inkscape:cy="4898.8356"
     inkscape:window-width="1647"
     inkscape:window-height="1040"
     inkscape:window-x="781"
     inkscape:window-y="22"
     inkscape:window-maximized="0"
     inkscape:current-layer="layer1"><sodipodi:guide
       position="1161.7272,-858.1708"
       orientation="1,0"
       id="guide74"
       inkscape:locked="false" /><inkscape:page
       x="4.5920075e-05"
       y="2.6947773e-05"
       width="508"
       height="285.75"
       id="page122"
       margin="0"
       bleed="0"
       inkscape:export-filename="..\..\proyecto\src\assets\neutral\planet-orbit-neutral.svg"
       inkscape:export-xdpi="96"
       inkscape:export-ydpi="96" /></sodipodi:namedview><defs
     id="defs1"><linearGradient
       id="linearGradient9"
       inkscape:collect="always"><stop
         style="stop-color:#079ef6;stop-opacity:1;"
         offset="0"
         id="stop1" /><stop
         style="stop-color:#25358c;stop-opacity:1;"
         offset="0.85185188"
         id="stop4" /></linearGradient><linearGradient
       id="swatch86"
       inkscape:swatch="solid"><stop
         style="stop-color:#000000;stop-opacity:1;"
         offset="0"
         id="stop86" /></linearGradient><linearGradient
       id="swatch15"
       inkscape:swatch="solid"><stop
         style="stop-color:#000000;stop-opacity:1;"
         offset="0"
         id="stop15" /></linearGradient><linearGradient
       id="linearGradient33"
       inkscape:collect="always"><stop
         style="stop-color:#d7f2fe;stop-opacity:1;"
         offset="0"
         id="stop32" /><stop
         style="stop-color:#a5aecf;stop-opacity:1;"
         offset="0.85185188"
         id="stop33" /></linearGradient><linearGradient
       inkscape:collect="always"
       xlink:href="#linearGradient9"
       id="linearGradient123"
       gradientUnits="userSpaceOnUse"
       gradientTransform="matrix(0.80921087,0,0,0.80921087,-1896.1122,309.78508)"
       x1="519.73047"
       y1="845.70355"
       x2="679.5675"
       y2="1005.5406"
       spreadMethod="repeat" /><linearGradient
       inkscape:collect="always"
       xlink:href="#linearGradient33"
       id="linearGradient124"
       gradientUnits="userSpaceOnUse"
       gradientTransform="matrix(0.19997948,0,0,0.20379606,-1613.8168,769.79967)"
       x1="506.35519"
       y1="917.64117"
       x2="721.81439"
       y2="917.64117"
       spreadMethod="repeat" /><filter
       inkscape:collect="always"
       style="color-interpolation-filters:sRGB"
       id="filter72-2-6-1-3"
       x="-0.2904768"
       y="-0.2904768"
       width="1.5809536"
       height="1.5809536"><feGaussianBlur
         inkscape:collect="always"
         stdDeviation="63.155368"
         id="feGaussianBlur72-6-1-5-8" /></filter><filter
       inkscape:collect="always"
       style="color-interpolation-filters:sRGB"
       id="filter72-2-6-1-3-6"
       x="-0.2904768"
       y="-0.2904768"
       width="1.5809536"
       height="1.5809536"><feGaussianBlur
         inkscape:collect="always"
         stdDeviation="63.155368"
         id="feGaussianBlur72-6-1-5-8-1" /></filter><filter
       inkscape:collect="always"
       style="color-interpolation-filters:sRGB"
       id="filter72-2-6-1-3-7"
       x="-0.2904768"
       y="-0.2904768"
       width="1.5809536"
       height="1.5809536"><feGaussianBlur
         inkscape:collect="always"
         stdDeviation="63.155368"
         id="feGaussianBlur72-6-1-5-8-13" /></filter><filter
       inkscape:collect="always"
       style="color-interpolation-filters:sRGB"
       id="filter72-2-6-1-3-2"
       x="-0.2904768"
       y="-0.2904768"
       width="1.5809536"
       height="1.5809536"><feGaussianBlur
         inkscape:collect="always"
         stdDeviation="63.155368"
         id="feGaussianBlur72-6-1-5-8-5" /></filter><filter
       inkscape:collect="always"
       style="color-interpolation-filters:sRGB"
       id="filter72-2-6-1-3-7-1"
       x="-0.2904768"
       y="-0.2904768"
       width="1.5809536"
       height="1.5809536"><feGaussianBlur
         inkscape:collect="always"
         stdDeviation="63.155368"
         id="feGaussianBlur72-6-1-5-8-13-0" /></filter><filter
       inkscape:collect="always"
       style="color-interpolation-filters:sRGB"
       id="filter72-2-6-1-3-6-8"
       x="-0.2904768"
       y="-0.2904768"
       width="1.5809536"
       height="1.5809536"><feGaussianBlur
         inkscape:collect="always"
         stdDeviation="63.155368"
         id="feGaussianBlur72-6-1-5-8-1-7" /></filter></defs><g
     inkscape:label="Layer 1"
     inkscape:groupmode="layer"
     id="layer1"
     transform="translate(1775.7194,-953.6666)"><g
       id="g72-5-42-2-9"
       transform="matrix(0.43608496,0,0,0.43608496,-1627.9373,680.1039)"><path
         sodipodi:type="star"
         style="font-variation-settings:normal;fill:#ffffff;fill-opacity:1;fill-rule:evenodd;stroke:none;stroke-width:2;stroke-linecap:square;stroke-linejoin:miter;stroke-miterlimit:4;stroke-dasharray:12, 12;stroke-dashoffset:0;stroke-opacity:1;paint-order:normal"
         id="path72-1-86-0-1"
         inkscape:flatsided="false"
         sodipodi:sides="4"
         sodipodi:cx="0"
         sodipodi:cy="1591.7035"
         sodipodi:r1="260.90359"
         sodipodi:r2="130.45181"
         sodipodi:arg1="1.5707963"
         sodipodi:arg2="2.3561945"
         inkscape:rounded="0.2"
         inkscape:randomized="0"
         d="M 6.9908848e-6,1852.6071 C -38.447419,1852.6071 -65.056926,1711.1333 -92.243362,1683.9469 c -27.186438,-27.1865 -168.660238,-53.796 -168.660228,-92.2434 0,-38.4474 141.47379,-65.0569 168.660229,-92.2434 27.186434,-27.1864 53.79593,-168.6602 92.243354009115,-168.6602 C 38.447419,1330.7999 65.056926,1472.2737 92.243362,1499.4601 c 27.186438,27.1865 168.660238,53.796 168.660228,92.2434 0,38.4474 -141.47379,65.0569 -168.660229,92.2434 -27.186434,27.1864 -53.79593,168.6602 -92.2433540091152,168.6602 z"
         transform="matrix(0.13545177,0,0,0.13545177,378.78113,865.30544)" /><path
         sodipodi:type="star"
         style="font-variation-settings:normal;opacity:0.754808;fill:#ffffff;fill-opacity:1;fill-rule:evenodd;stroke:none;stroke-width:2;stroke-linecap:square;stroke-linejoin:miter;stroke-miterlimit:4;stroke-dasharray:12, 12;stroke-dashoffset:0;stroke-opacity:1;paint-order:normal;filter:url(#filter72-2-6-1-3)"
         id="path72-7-6-3-4-6"
         inkscape:flatsided="false"
         sodipodi:sides="4"
         sodipodi:cx="0"
         sodipodi:cy="1591.7035"
         sodipodi:r1="260.90359"
         sodipodi:r2="130.45181"
         sodipodi:arg1="1.5707963"
         sodipodi:arg2="2.3561945"
         inkscape:rounded="0.2"
         inkscape:randomized="0"
         d="M 6.9908848e-6,1852.6071 C -38.447419,1852.6071 -65.056926,1711.1333 -92.243362,1683.9469 c -27.186438,-27.1865 -168.660238,-53.796 -168.660228,-92.2434 0,-38.4474 141.47379,-65.0569 168.660229,-92.2434 27.186434,-27.1864 53.79593,-168.6602 92.243354009115,-168.6602 C 38.447419,1330.7999 65.056926,1472.2737 92.243362,1499.4601 c 27.186438,27.1865 168.660238,53.796 168.660228,92.2434 0,38.4474 -141.47379,65.0569 -168.660229,92.2434 -27.186434,27.1864 -53.79593,168.6602 -92.2433540091152,168.6602 z"
         transform="matrix(0.13545177,0,0,0.13545177,378.78113,865.30544)" /></g><g
       id="g72-5-42-2-9-6"
       transform="matrix(0.27583592,0,0,0.27583592,-1776.6611,821.80421)"><path
         sodipodi:type="star"
         style="font-variation-settings:normal;fill:#ffffff;fill-opacity:1;fill-rule:evenodd;stroke:none;stroke-width:2;stroke-linecap:square;stroke-linejoin:miter;stroke-miterlimit:4;stroke-dasharray:12, 12;stroke-dashoffset:0;stroke-opacity:1;paint-order:normal"
         id="path72-1-86-0-1-8"
         inkscape:flatsided="false"
         sodipodi:sides="4"
         sodipodi:cx="0"
         sodipodi:cy="1591.7035"
         sodipodi:r1="260.90359"
         sodipodi:r2="130.45181"
         sodipodi:arg1="1.5707963"
         sodipodi:arg2="2.3561945"
         inkscape:rounded="0.2"
         inkscape:randomized="0"
         d="M 6.9908848e-6,1852.6071 C -38.447419,1852.6071 -65.056926,1711.1333 -92.243362,1683.9469 c -27.186438,-27.1865 -168.660238,-53.796 -168.660228,-92.2434 0,-38.4474 141.47379,-65.0569 168.660229,-92.2434 27.186434,-27.1864 53.79593,-168.6602 92.243354009115,-168.6602 C 38.447419,1330.7999 65.056926,1472.2737 92.243362,1499.4601 c 27.186438,27.1865 168.660238,53.796 168.660228,92.2434 0,38.4474 -141.47379,65.0569 -168.660229,92.2434 -27.186434,27.1864 -53.79593,168.6602 -92.2433540091152,168.6602 z"
         transform="matrix(0.13545177,0,0,0.13545177,378.78113,865.30544)" /><path
         sodipodi:type="star"
         style="font-variation-settings:normal;opacity:0.754808;fill:#ffffff;fill-opacity:1;fill-rule:evenodd;stroke:none;stroke-width:2;stroke-linecap:square;stroke-linejoin:miter;stroke-miterlimit:4;stroke-dasharray:12, 12;stroke-dashoffset:0;stroke-opacity:1;paint-order:normal;filter:url(#filter72-2-6-1-3-2)"
         id="path72-7-6-3-4-6-36"
         inkscape:flatsided="false"
         sodipodi:sides="4"
         sodipodi:cx="0"
         sodipodi:cy="1591.7035"
         sodipodi:r1="260.90359"
         sodipodi:r2="130.45181"
         sodipodi:arg1="1.5707963"
         sodipodi:arg2="2.3561945"
         inkscape:rounded="0.2"
         inkscape:randomized="0"
         d="M 6.9908848e-6,1852.6071 C -38.447419,1852.6071 -65.056926,1711.1333 -92.243362,1683.9469 c -27.186438,-27.1865 -168.660238,-53.796 -168.660228,-92.2434 0,-38.4474 141.47379,-65.0569 168.660229,-92.2434 27.186434,-27.1864 53.79593,-168.6602 92.243354009115,-168.6602 C 38.447419,1330.7999 65.056926,1472.2737 92.243362,1499.4601 c 27.186438,27.1865 168.660238,53.796 168.660228,92.2434 0,38.4474 -141.47379,65.0569 -168.660229,92.2434 -27.186434,27.1864 -53.79593,168.6602 -92.2433540091152,168.6602 z"
         transform="matrix(0.13545177,0,0,0.13545177,378.78113,865.30544)" /></g><g
       id="g72-5-42-2-9-7"
       transform="matrix(0.43608496,0,0,0.43608496,-1839.7926,550.86024)"><path
         sodipodi:type="star"
         style="font-variation-settings:normal;fill:#ffffff;fill-opacity:1;fill-rule:evenodd;stroke:none;stroke-width:2;stroke-linecap:square;stroke-linejoin:miter;stroke-miterlimit:4;stroke-dasharray:12, 12;stroke-dashoffset:0;stroke-opacity:1;paint-order:normal"
         id="path72-1-86-0-1-7"
         inkscape:flatsided="false"
         sodipodi:sides="4"
         sodipodi:cx="0"
         sodipodi:cy="1591.7035"
         sodipodi:r1="260.90359"
         sodipodi:r2="130.45181"
         sodipodi:arg1="1.5707963"
         sodipodi:arg2="2.3561945"
         inkscape:rounded="0.2"
         inkscape:randomized="0"
         d="M 6.9908848e-6,1852.6071 C -38.447419,1852.6071 -65.056926,1711.1333 -92.243362,1683.9469 c -27.186438,-27.1865 -168.660238,-53.796 -168.660228,-92.2434 0,-38.4474 141.47379,-65.0569 168.660229,-92.2434 27.186434,-27.1864 53.79593,-168.6602 92.243354009115,-168.6602 C 38.447419,1330.7999 65.056926,1472.2737 92.243362,1499.4601 c 27.186438,27.1865 168.660238,53.796 168.660228,92.2434 0,38.4474 -141.47379,65.0569 -168.660229,92.2434 -27.186434,27.1864 -53.79593,168.6602 -92.2433540091152,168.6602 z"
         transform="matrix(0.13545177,0,0,0.13545177,378.78113,865.30544)" /><path
         sodipodi:type="star"
         style="font-variation-settings:normal;opacity:0.754808;fill:#ffffff;fill-opacity:1;fill-rule:evenodd;stroke:none;stroke-width:2;stroke-linecap:square;stroke-linejoin:miter;stroke-miterlimit:4;stroke-dasharray:12, 12;stroke-dashoffset:0;stroke-opacity:1;paint-order:normal;filter:url(#filter72-2-6-1-3-6)"
         id="path72-7-6-3-4-6-0"
         inkscape:flatsided="false"
         sodipodi:sides="4"
         sodipodi:cx="0"
         sodipodi:cy="1591.7035"
         sodipodi:r1="260.90359"
         sodipodi:r2="130.45181"
         sodipodi:arg1="1.5707963"
         sodipodi:arg2="2.3561945"
         inkscape:rounded="0.2"
         inkscape:randomized="0"
         d="M 6.9908848e-6,1852.6071 C -38.447419,1852.6071 -65.056926,1711.1333 -92.243362,1683.9469 c -27.186438,-27.1865 -168.660238,-53.796 -168.660228,-92.2434 0,-38.4474 141.47379,-65.0569 168.660229,-92.2434 27.186434,-27.1864 53.79593,-168.6602 92.243354009115,-168.6602 C 38.447419,1330.7999 65.056926,1472.2737 92.243362,1499.4601 c 27.186438,27.1865 168.660238,53.796 168.660228,92.2434 0,38.4474 -141.47379,65.0569 -168.660229,92.2434 -27.186434,27.1864 -53.79593,168.6602 -92.2433540091152,168.6602 z"
         transform="matrix(0.13545177,0,0,0.13545177,378.78113,865.30544)" /></g><g
       id="g72-5-42-2-9-7-9"
       transform="matrix(0.16802716,0,0,0.16802716,-1698.4819,800.82958)"><path
         sodipodi:type="star"
         style="font-variation-settings:normal;fill:#ffffff;fill-opacity:1;fill-rule:evenodd;stroke:none;stroke-width:2;stroke-linecap:square;stroke-linejoin:miter;stroke-miterlimit:4;stroke-dasharray:12, 12;stroke-dashoffset:0;stroke-opacity:1;paint-order:normal"
         id="path72-1-86-0-1-7-0"
         inkscape:flatsided="false"
         sodipodi:sides="4"
         sodipodi:cx="0"
         sodipodi:cy="1591.7035"
         sodipodi:r1="260.90359"
         sodipodi:r2="130.45181"
         sodipodi:arg1="1.5707963"
         sodipodi:arg2="2.3561945"
         inkscape:rounded="0.2"
         inkscape:randomized="0"
         d="M 6.9908848e-6,1852.6071 C -38.447419,1852.6071 -65.056926,1711.1333 -92.243362,1683.9469 c -27.186438,-27.1865 -168.660238,-53.796 -168.660228,-92.2434 0,-38.4474 141.47379,-65.0569 168.660229,-92.2434 27.186434,-27.1864 53.79593,-168.6602 92.243354009115,-168.6602 C 38.447419,1330.7999 65.056926,1472.2737 92.243362,1499.4601 c 27.186438,27.1865 168.660238,53.796 168.660228,92.2434 0,38.4474 -141.47379,65.0569 -168.660229,92.2434 -27.186434,27.1864 -53.79593,168.6602 -92.2433540091152,168.6602 z"
         transform="matrix(0.13545177,0,0,0.13545177,378.78113,865.30544)" /><path
         sodipodi:type="star"
         style="font-variation-settings:normal;opacity:0.754808;fill:#ffffff;fill-opacity:1;fill-rule:evenodd;stroke:none;stroke-width:2;stroke-linecap:square;stroke-linejoin:miter;stroke-miterlimit:4;stroke-dasharray:12, 12;stroke-dashoffset:0;stroke-opacity:1;paint-order:normal;filter:url(#filter72-2-6-1-3-6-8)"
         id="path72-7-6-3-4-6-0-5"
         inkscape:flatsided="false"
         sodipodi:sides="4"
         sodipodi:cx="0"
         sodipodi:cy="1591.7035"
         sodipodi:r1="260.90359"
         sodipodi:r2="130.45181"
         sodipodi:arg1="1.5707963"
         sodipodi:arg2="2.3561945"
         inkscape:rounded="0.2"
         inkscape:randomized="0"
         d="M 6.9908848e-6,1852.6071 C -38.447419,1852.6071 -65.056926,1711.1333 -92.243362,1683.9469 c -27.186438,-27.1865 -168.660238,-53.796 -168.660228,-92.2434 0,-38.4474 141.47379,-65.0569 168.660229,-92.2434 27.186434,-27.1864 53.79593,-168.6602 92.243354009115,-168.6602 C 38.447419,1330.7999 65.056926,1472.2737 92.243362,1499.4601 c 27.186438,27.1865 168.660238,53.796 168.660228,92.2434 0,38.4474 -141.47379,65.0569 -168.660229,92.2434 -27.186434,27.1864 -53.79593,168.6602 -92.2433540091152,168.6602 z"
         transform="matrix(0.13545177,0,0,0.13545177,378.78113,865.30544)" /></g><g
       id="g72-5-42-2-9-9"
       transform="matrix(0.43608496,0,0,0.43608496,-1791.6043,734.10238)"><path
         sodipodi:type="star"
         style="font-variation-settings:normal;fill:#ffffff;fill-opacity:1;fill-rule:evenodd;stroke:none;stroke-width:2;stroke-linecap:square;stroke-linejoin:miter;stroke-miterlimit:4;stroke-dasharray:12, 12;stroke-dashoffset:0;stroke-opacity:1;paint-order:normal"
         id="path72-1-86-0-1-1"
         inkscape:flatsided="false"
         sodipodi:sides="4"
         sodipodi:cx="0"
         sodipodi:cy="1591.7035"
         sodipodi:r1="260.90359"
         sodipodi:r2="130.45181"
         sodipodi:arg1="1.5707963"
         sodipodi:arg2="2.3561945"
         inkscape:rounded="0.2"
         inkscape:randomized="0"
         d="M 6.9908848e-6,1852.6071 C -38.447419,1852.6071 -65.056926,1711.1333 -92.243362,1683.9469 c -27.186438,-27.1865 -168.660238,-53.796 -168.660228,-92.2434 0,-38.4474 141.47379,-65.0569 168.660229,-92.2434 27.186434,-27.1864 53.79593,-168.6602 92.243354009115,-168.6602 C 38.447419,1330.7999 65.056926,1472.2737 92.243362,1499.4601 c 27.186438,27.1865 168.660238,53.796 168.660228,92.2434 0,38.4474 -141.47379,65.0569 -168.660229,92.2434 -27.186434,27.1864 -53.79593,168.6602 -92.2433540091152,168.6602 z"
         transform="matrix(0.13545177,0,0,0.13545177,378.78113,865.30544)" /><path
         sodipodi:type="star"
         style="font-variation-settings:normal;opacity:0.754808;fill:#ffffff;fill-opacity:1;fill-rule:evenodd;stroke:none;stroke-width:2;stroke-linecap:square;stroke-linejoin:miter;stroke-miterlimit:4;stroke-dasharray:12, 12;stroke-dashoffset:0;stroke-opacity:1;paint-order:normal;filter:url(#filter72-2-6-1-3-7)"
         id="path72-7-6-3-4-6-3"
         inkscape:flatsided="false"
         sodipodi:sides="4"
         sodipodi:cx="0"
         sodipodi:cy="1591.7035"
         sodipodi:r1="260.90359"
         sodipodi:r2="130.45181"
         sodipodi:arg1="1.5707963"
         sodipodi:arg2="2.3561945"
         inkscape:rounded="0.2"
         inkscape:randomized="0"
         d="M 6.9908848e-6,1852.6071 C -38.447419,1852.6071 -65.056926,1711.1333 -92.243362,1683.9469 c -27.186438,-27.1865 -168.660238,-53.796 -168.660228,-92.2434 0,-38.4474 141.47379,-65.0569 168.660229,-92.2434 27.186434,-27.1864 53.79593,-168.6602 92.243354009115,-168.6602 C 38.447419,1330.7999 65.056926,1472.2737 92.243362,1499.4601 c 27.186438,27.1865 168.660238,53.796 168.660228,92.2434 0,38.4474 -141.47379,65.0569 -168.660229,92.2434 -27.186434,27.1864 -53.79593,168.6602 -92.2433540091152,168.6602 z"
         transform="matrix(0.13545177,0,0,0.13545177,378.78113,865.30544)" /></g><g
       id="g72-5-42-2-9-9-1"
       transform="matrix(0.30626521,0,0,0.30626521,-1700.9554,889.83631)"><path
         sodipodi:type="star"
         style="font-variation-settings:normal;fill:#ffffff;fill-opacity:1;fill-rule:evenodd;stroke:none;stroke-width:2;stroke-linecap:square;stroke-linejoin:miter;stroke-miterlimit:4;stroke-dasharray:12, 12;stroke-dashoffset:0;stroke-opacity:1;paint-order:normal"
         id="path72-1-86-0-1-1-6"
         inkscape:flatsided="false"
         sodipodi:sides="4"
         sodipodi:cx="0"
         sodipodi:cy="1591.7035"
         sodipodi:r1="260.90359"
         sodipodi:r2="130.45181"
         sodipodi:arg1="1.5707963"
         sodipodi:arg2="2.3561945"
         inkscape:rounded="0.2"
         inkscape:randomized="0"
         d="M 6.9908848e-6,1852.6071 C -38.447419,1852.6071 -65.056926,1711.1333 -92.243362,1683.9469 c -27.186438,-27.1865 -168.660238,-53.796 -168.660228,-92.2434 0,-38.4474 141.47379,-65.0569 168.660229,-92.2434 27.186434,-27.1864 53.79593,-168.6602 92.243354009115,-168.6602 C 38.447419,1330.7999 65.056926,1472.2737 92.243362,1499.4601 c 27.186438,27.1865 168.660238,53.796 168.660228,92.2434 0,38.4474 -141.47379,65.0569 -168.660229,92.2434 -27.186434,27.1864 -53.79593,168.6602 -92.2433540091152,168.6602 z"
         transform="matrix(0.13545177,0,0,0.13545177,378.78113,865.30544)" /><path
         sodipodi:type="star"
         style="font-variation-settings:normal;opacity:0.754808;fill:#ffffff;fill-opacity:1;fill-rule:evenodd;stroke:none;stroke-width:2;stroke-linecap:square;stroke-linejoin:miter;stroke-miterlimit:4;stroke-dasharray:12, 12;stroke-dashoffset:0;stroke-opacity:1;paint-order:normal;filter:url(#filter72-2-6-1-3-7-1)"
         id="path72-7-6-3-4-6-3-5"
         inkscape:flatsided="false"
         sodipodi:sides="4"
         sodipodi:cx="0"
         sodipodi:cy="1591.7035"
         sodipodi:r1="260.90359"
         sodipodi:r2="130.45181"
         sodipodi:arg1="1.5707963"
         sodipodi:arg2="2.3561945"
         inkscape:rounded="0.2"
         inkscape:randomized="0"
         d="M 6.9908848e-6,1852.6071 C -38.447419,1852.6071 -65.056926,1711.1333 -92.243362,1683.9469 c -27.186438,-27.1865 -168.660238,-53.796 -168.660228,-92.2434 0,-38.4474 141.47379,-65.0569 168.660229,-92.2434 27.186434,-27.1864 53.79593,-168.6602 92.243354009115,-168.6602 C 38.447419,1330.7999 65.056926,1472.2737 92.243362,1499.4601 c 27.186438,27.1865 168.660238,53.796 168.660228,92.2434 0,38.4474 -141.47379,65.0569 -168.660229,92.2434 -27.186434,27.1864 -53.79593,168.6602 -92.2433540091152,168.6602 z"
         transform="matrix(0.13545177,0,0,0.13545177,378.78113,865.30544)" /></g></g><g
     inkscape:groupmode="layer"
     id="layer2"
     inkscape:label="Layer 2"
     transform="translate(1677.1355,-910.1666)"><ellipse
       style="opacity:1;fill:url(#linearGradient123);fill-opacity:1;fill-rule:evenodd;stroke:none;stroke-width:0.323684;stroke-linecap:round;stroke-dasharray:none;stroke-opacity:1;paint-order:fill markers stroke"
       id="path27-4"
       cx="-1399.188"
       cy="1052.3503"
       rx="87.175957"
       ry="87.018738" /><ellipse
       style="fill:none;fill-rule:evenodd;stroke:#fdfdff;stroke-width:3;stroke-linecap:round;stroke-dasharray:12, 12;stroke-dashoffset:0;stroke-opacity:1;paint-order:fill markers stroke"
       id="path27-0-4"
       cx="-1399.188"
       cy="1053.0527"
       rx="132.05856"
       ry="131.82037" /><ellipse
       style="fill:url(#linearGradient124);fill-rule:evenodd;stroke:none;stroke-width:0.0807514;stroke-linecap:round;stroke-dasharray:none;stroke-opacity:1;paint-order:fill markers stroke"
       id="path27-8-2"
       cx="-1491.0125"
       cy="956.81116"
       rx="21.543711"
       ry="21.915272" /></g></svg>
